<?xml version="1.0" encoding="UTF-8" standalone="no"?>
<!-- Created with Inkscape (http://www.inkscape.org/) -->

<svg
   width="16"
   height="16"
   viewBox="0 0 16 16"
   version="1.1"
   id="SVGRoot"
   sodipodi:docname="C:\Users\Amine\AppData\Local\Temp\ink_ext_XXXXXX.svgFJLWT2"
   xmlns:inkscape="http://www.inkscape.org/namespaces/inkscape"
   xmlns:sodipodi="http://sodipodi.sourceforge.net/DTD/sodipodi-0.dtd"
   xmlns="http://www.w3.org/2000/svg"
   xmlns:svg="http://www.w3.org/2000/svg">
  <sodipodi:namedview
     id="namedview431"
     pagecolor="#505050"
     bordercolor="#eeeeee"
     borderopacity="1"
     inkscape:showpageshadow="0"
     inkscape:pageopacity="0"
     inkscape:pagecheckerboard="0"
     inkscape:deskcolor="#505050"
     inkscape:document-units="px"
     showgrid="true"
     inkscape:zoom="0.25"
     inkscape:cx="30.0"
     inkscape:cy="30.0"
     inkscape:window-width="1920"
     inkscape:window-height="991"
     inkscape:window-x="-9"
     inkscape:window-y="-9"
     inkscape:window-maximized="0"
     inkscape:current-layer="layer1">
    <inkscape:grid
       type="xygrid"
       id="grid554" />
  </sodipodi:namedview>
  <defs
     id="defs426" />
  <g
     inkscape:label="Layer 1"
     inkscape:groupmode="layer"
     id="layer1">
    <g
       id="g26313"
       transform="matrix(0.18906144,0,0,0.18906144,-23.533605,-8.6781489)"
       style="mix-blend-mode:multiply">
      <g
         id="g26296"
         transform="matrix(4.1274329,0,0,4.1274442,-665.07728,-270.90594)">
        <g
           id="g17917"
           transform="matrix(0.12535992,0,0,0.12535992,193.55624,77.341996)">
          <path
             d="M 121.59,60.83 107.66,56.34 C 98.75,53.4 93.53,46.19 91.08,37.13 L 84.95,7.27 C 84.79,6.68 84.4,5.89 83.2,5.89 c -1.01,0 -1.59,0.79 -1.75,1.38 L 75.32,37.14 C 72.86,46.2 67.65,53.41 58.74,56.35 l -13.93,4.49 c -1.97,0.64 -2,3.42 -0.04,4.09 l 14.03,4.83 c 8.88,2.95 14.06,10.15 16.52,19.17 l 6.14,29.53 c 0.16,0.59 0.49,1.65 1.75,1.65 1.33,0 1.59,-1.06 1.75,-1.65 L 91.1,88.93 C 93.56,79.9 98.74,72.7 107.62,69.76 l 14.03,-4.83 c 1.94,-0.68 1.91,-3.46 -0.06,-4.1 z"
             fill="#fdd835"
             id="path17887" />
          <path
             d="m 122.91,62.08 c -0.22,-0.55 -0.65,-1.03 -1.32,-1.25 L 107.66,56.34 C 98.75,53.4 93.53,46.19 91.08,37.13 L 84.95,7.27 C 84.86,6.93 84.54,6.31 84.17,6.13 l 1.98,29.97 c 1.47,13.68 2.73,20.12 13.65,22 9.38,1.62 20.23,3.48 23.11,3.98 z"
             fill="#ffee58"
             id="path17889" />
          <path
             d="m 122.94,63.64 -24.16,5.54 c -8.51,2.16 -13.2,7.09 -13.2,19.99 l -2.37,30.94 c 0.81,-0.08 1.47,-0.52 1.75,-1.65 L 91.1,88.93 C 93.56,79.9 98.74,72.7 107.62,69.76 l 14.03,-4.83 c 0.66,-0.24 1.08,-0.73 1.29,-1.29 z"
             fill="#f4b400"
             id="path17891" />
        </g>
        <g
           id="g24096"
           transform="matrix(0.06267996,0,0,0.06267996,193.89057,88.450139)">
          <path
             d="M 121.59,60.83 107.66,56.34 C 98.75,53.4 93.53,46.19 91.08,37.13 L 84.95,7.27 C 84.79,6.68 84.4,5.89 83.2,5.89 c -1.01,0 -1.59,0.79 -1.75,1.38 L 75.32,37.14 C 72.86,46.2 67.65,53.41 58.74,56.35 l -13.93,4.49 c -1.97,0.64 -2,3.42 -0.04,4.09 l 14.03,4.83 c 8.88,2.95 14.06,10.15 16.52,19.17 l 6.14,29.53 c 0.16,0.59 0.49,1.65 1.75,1.65 1.33,0 1.59,-1.06 1.75,-1.65 L 91.1,88.93 C 93.56,79.9 98.74,72.7 107.62,69.76 l 14.03,-4.83 c 1.94,-0.68 1.91,-3.46 -0.06,-4.1 z"
             fill="#fdd835"
             id="path24090" />
          <path
             d="m 122.91,62.08 c -0.22,-0.55 -0.65,-1.03 -1.32,-1.25 L 107.66,56.34 C 98.75,53.4 93.53,46.19 91.08,37.13 L 84.95,7.27 C 84.86,6.93 84.54,6.31 84.17,6.13 l 1.98,29.97 c 1.47,13.68 2.73,20.12 13.65,22 9.38,1.62 20.23,3.48 23.11,3.98 z"
             fill="#ffee58"
             id="path24092" />
          <path
             d="m 122.94,63.64 -24.16,5.54 c -8.51,2.16 -13.2,7.09 -13.2,19.99 l -2.37,30.94 c 0.81,-0.08 1.47,-0.52 1.75,-1.65 L 91.1,88.93 C 93.56,79.9 98.74,72.7 107.62,69.76 l 14.03,-4.83 c 0.66,-0.24 1.08,-0.73 1.29,-1.29 z"
             fill="#f4b400"
             id="path24094" />
        </g>
        <g
           id="g24104"
           transform="matrix(0.06267996,0,0,0.06267996,191.39057,77.668559)">
          <path
             d="M 121.59,60.83 107.66,56.34 C 98.75,53.4 93.53,46.19 91.08,37.13 L 84.95,7.27 C 84.79,6.68 84.4,5.89 83.2,5.89 c -1.01,0 -1.59,0.79 -1.75,1.38 L 75.32,37.14 C 72.86,46.2 67.65,53.41 58.74,56.35 l -13.93,4.49 c -1.97,0.64 -2,3.42 -0.04,4.09 l 14.03,4.83 c 8.88,2.95 14.06,10.15 16.52,19.17 l 6.14,29.53 c 0.16,0.59 0.49,1.65 1.75,1.65 1.33,0 1.59,-1.06 1.75,-1.65 L 91.1,88.93 C 93.56,79.9 98.74,72.7 107.62,69.76 l 14.03,-4.83 c 1.94,-0.68 1.91,-3.46 -0.06,-4.1 z"
             fill="#fdd835"
             id="path24098" />
          <path
             d="m 122.91,62.08 c -0.22,-0.55 -0.65,-1.03 -1.32,-1.25 L 107.66,56.34 C 98.75,53.4 93.53,46.19 91.08,37.13 L 84.95,7.27 C 84.86,6.93 84.54,6.31 84.17,6.13 l 1.98,29.97 c 1.47,13.68 2.73,20.12 13.65,22 9.38,1.62 20.23,3.48 23.11,3.98 z"
             fill="#ffee58"
             id="path24100" />
          <path
             d="m 122.94,63.64 -24.16,5.54 c -8.51,2.16 -13.2,7.09 -13.2,19.99 l -2.37,30.94 c 0.81,-0.08 1.47,-0.52 1.75,-1.65 L 91.1,88.93 C 93.56,79.9 98.74,72.7 107.62,69.76 l 14.03,-4.83 c 0.66,-0.24 1.08,-0.73 1.29,-1.29 z"
             fill="#f4b400"
             id="path24102" />
        </g>
      </g>
    </g>
  </g>
</svg>
