<?xml version="1.0" encoding="UTF-8" standalone="no"?>
<!-- Created with Inkscape (http://www.inkscape.org/) -->

<svg
   width="66.914665mm"
   height="21.154402mm"
   viewBox="0 0 66.914665 21.154401"
   version="1.1"
   id="svg12225"
   inkscape:export-filename="cleany-logo.svg"
   inkscape:export-xdpi="96"
   inkscape:export-ydpi="96"
   inkscape:version="1.2.1 (9c6d41e410, 2022-07-14)"
   sodipodi:docname="cleany-logo.svg"
   xmlns:inkscape="http://www.inkscape.org/namespaces/inkscape"
   xmlns:sodipodi="http://sodipodi.sourceforge.net/DTD/sodipodi-0.dtd"
   xmlns="http://www.w3.org/2000/svg"
   xmlns:svg="http://www.w3.org/2000/svg">
  <sodipodi:namedview
     id="namedview12227"
     pagecolor="#505050"
     bordercolor="#eeeeee"
     borderopacity="1"
     inkscape:showpageshadow="0"
     inkscape:pageopacity="0"
     inkscape:pagecheckerboard="0"
     inkscape:deskcolor="#505050"
     inkscape:document-units="mm"
     showgrid="false"
     inkscape:zoom="4.051698"
     inkscape:cx="218.79715"
     inkscape:cy="3.8255566"
     inkscape:window-width="1920"
     inkscape:window-height="991"
     inkscape:window-x="-9"
     inkscape:window-y="-9"
     inkscape:window-maximized="1"
     inkscape:current-layer="layer1" />
  <defs
     id="defs12222" />
  <g
     inkscape:label="Layer 1"
     inkscape:groupmode="layer"
     id="layer1"
     transform="translate(-37.652732,-138.10748)">
    <path
       id="path12587"
       style="font-size:15.8487px;line-height:1.25;font-family:'Blues Malone';-inkscape-font-specification:'Blues Malone';text-align:center;text-anchor:middle;mix-blend-mode:multiply;stroke-width:0.082545"
       d="m 135.84668,78.073719 c -0.24268,-2.42e-4 -0.48556,0.01406 -0.72546,0.03921 -4.5503,0.487533 -8.06359,5.153556 -9.61132,9.247283 -0.52622,1.400689 -0.90523,2.90951 -1.00583,4.403063 -0.0929,1.331043 0.0309,2.731808 0.57252,3.939032 0.95185,2.159073 2.8867,3.056959 5.16185,3.026004 2.23646,-0.03095 4.51151,-1.129894 6.3533,-2.38355 1.3427,-0.91481 2.74699,-2.120719 3.92269,-3.458009 -0.0287,2.497097 1.55144,3.619311 4.25732,2.359367 1.23207,-0.57252 2.44128,-1.53639 3.52729,-2.599225 0.1244,2.955228 4.38704,3.706612 8.6277,0.04967 0.002,0.433034 0.12252,0.818762 0.38887,1.117595 1.30783,1.462597 3.98572,-0.974905 5.12329,-2.027357 -0.44109,1.354258 -0.13918,3.482465 1.75679,3.745578 1.63874,0.224743 3.44084,-0.973066 4.94029,-2.343029 l -0.69213,1.816909 c -0.0851,0.239898 0.0155,0.495003 0.23986,0.611083 0.47979,0.247636 0.69674,0.248008 0.99081,-0.06928 0.33276,-0.355976 1.26923,-1.958082 2.48419,-3.36651 1.28461,-1.501291 3.49777,-4.248609 3.68349,-0.882312 0.0619,1.098884 0.24777,2.445305 1.56333,2.80902 1.32183,0.371597 3.25523,-0.564141 4.72396,-1.840437 0.20485,1.729245 2.06312,1.970638 4.78671,-1.13851 -0.35597,0.936373 -0.7273,1.87244 -1.10649,2.793335 -2.49956,1.462598 -5.9513,3.621635 -7.45259,6.067038 -1.84179,2.994843 -0.511,5.300963 1.6326,4.759253 3.7068,-0.93637 6.50067,-9.487534 6.86439,-9.905419 0.13155,-0.147033 5.68812,-3.041332 7.20489,-4.325943 0.51849,-0.433362 -0.30215,-1.462414 -0.85159,-1.005835 -1.13758,0.959588 -4.08551,2.530531 -5.54811,3.350824 l 2.24369,-5.618039 c 0.24764,-0.557181 -0.75071,-1.15362 -1.12217,-0.673825 -0.81255,1.029235 -4.25578,5.974223 -5.35466,5.633725 0.0155,0.0077 0.008,-0.01525 0,-0.03072 -0.24764,-0.804816 0.75014,-2.561259 1.17577,-3.188087 0.38693,-0.572657 -0.70387,-1.31576 -1.0908,-0.743102 -0.31686,0.46548 -0.57587,0.918922 -0.78167,1.352224 -0.0411,0.03307 -0.078,0.07459 -0.10849,0.126138 -0.94412,1.594155 -3.52081,3.474577 -4.83637,3.103124 -0.60362,-0.17025 -0.52651,-1.17644 -0.6039,-2.197937 -0.26311,-3.180571 -2.5612,-2.57719 -4.15536,-1.037207 -0.72743,0.696476 -1.4625,1.486203 -1.93455,2.020168 0.13106,-0.324804 0.29537,-0.645457 0.45031,-0.958779 0.004,-0.0051 0.009,-0.01123 0.0137,-0.01634 0.0616,-0.0731 0.095,-0.152232 0.10653,-0.232669 0.0134,-0.02815 0.0275,-0.05695 0.0405,-0.08496 0.29407,-0.642305 -0.98279,-1.160344 -1.26138,-0.548994 l -0.11372,0.298679 c -1.33382,1.67319 -4.88474,5.01098 -6.24742,3.786752 -1.16854,-1.060191 0.81273,-4.364462 1.47052,-5.138323 0.28632,-0.332761 0.17779,-0.588065 -0.0621,-0.820223 -0.76613,-0.711953 -0.78152,-0.340702 -1.88814,0.858783 -1.41394,-1.977003 -3.68147,-0.972392 -5.17427,0.707811 -0.13896,0.0049 -0.2724,0.06122 -0.3745,0.190187 -3.96217,5.037839 -9.28624,5.370704 -8.29569,1.950236 0.34823,-0.06191 0.69671,-0.147098 1.03721,-0.247701 1.33104,-0.386931 3.66821,-1.478042 3.01816,-3.056721 -0.58831,-1.40754 -2.9184,-0.669897 -4.35732,1.151581 -0.0532,0.02703 -0.10325,0.06539 -0.14705,0.117641 -1.32331,1.625109 -3.20379,3.605825 -5.09976,4.488027 -3.07223,1.431644 -2.59223,-1.40793 -1.92671,-3.458663 2.08943,-2.159073 3.94641,-4.187102 5.75725,-6.593811 2.93294,-3.908001 1.54768,-5.71833 -0.0542,-5.060549 -2.57101,1.068928 -5.601,7.535582 -6.72975,10.593625 -0.0697,0.05419 -0.13138,0.120799 -0.18038,0.201298 -1.24592,2.01204 -3.3663,4.016215 -5.29322,5.331778 -1.58641,1.083407 -3.614,2.097705 -5.54092,2.12866 -1.67154,0.02322 -3.08787,-0.541798 -3.79982,-2.143692 -0.43337,-0.975065 -0.51854,-2.143581 -0.44116,-3.203772 0.0929,-1.346519 0.43324,-2.701166 0.91303,-3.962561 1.31557,-3.497854 4.41153,-7.823561 8.34275,-8.241447 0.65004,-0.06965 1.40067,-0.04671 1.9888,0.270576 1.05246,0.549441 1.19909,1.826471 0.99015,2.925354 -0.21668,1.1221 -0.99011,2.120746 -1.76397,2.94104 -0.5804,0.626827 0.81254,1.671479 1.26138,1.16073 0.80481,-0.905417 1.70214,-2.414374 1.96526,-3.830541 0.17025,-0.858986 0.16236,-1.780343 -0.10849,-2.608375 -0.29407,-0.858987 -0.85111,-1.539541 -1.64044,-1.957426 -0.64425,-0.342434 -1.37122,-0.471801 -2.09925,-0.472527 z m 12.25956,2.582887 c 0.28887,0.0054 0.0164,0.886891 -0.98231,2.346949 -1.09889,1.601894 -2.6308,3.281374 -3.3737,4.093928 0.45657,-0.905418 1.4936,-2.863467 2.57701,-4.480838 0.91521,-1.367558 1.53964,-1.96453 1.779,-1.960039 z m 4.3011,8.210075 c 0.25698,-0.01259 0.11758,0.283839 -0.44638,0.613697 -0.4411,0.263113 -1.02166,0.464627 -1.32347,0.557491 0.22442,-0.247636 0.7121,-0.681183 1.17642,-0.936558 0.2781,-0.159609 0.47663,-0.228905 0.59343,-0.23463 z m 9.13487,0.121563 c 0.43912,-0.0065 0.83611,0.208998 1.12087,0.747678 -0.18573,0.177989 -4.13969,4.132371 -4.28673,2.909669 -0.14812,-1.244224 1.73141,-3.635992 3.16586,-3.657347 z m 23.37735,7.016014 c -0.5804,1.300087 -1.20705,2.576885 -1.88031,3.830541 -2.90971,5.347391 -5.59512,4.163621 -3.55212,0.843751 1.07567,-1.74893 3.42813,-3.420636 5.43243,-4.674292 z"
       transform="matrix(0.7906862,0,0,0.7906862,-60.768668,76.375669)" />
    <path
       d="M 121.59,60.83 107.66,56.34 C 98.75,53.4 93.53,46.19 91.08,37.13 L 84.95,7.27 C 84.79,6.68 84.4,5.89 83.2,5.89 c -1.01,0 -1.59,0.79 -1.75,1.38 L 75.32,37.14 C 72.86,46.2 67.65,53.41 58.74,56.35 l -13.93,4.49 c -1.97,0.64 -2,3.42 -0.04,4.09 l 14.03,4.83 c 8.88,2.95 14.06,10.15 16.52,19.17 l 6.14,29.53 c 0.16,0.59 0.49,1.65 1.75,1.65 1.33,0 1.59,-1.06 1.75,-1.65 L 91.1,88.93 C 93.56,79.9 98.74,72.7 107.62,69.76 l 14.03,-4.83 c 1.94,-0.68 1.91,-3.46 -0.06,-4.1 z"
       fill="#fdd835"
       id="path24098"
       style="mix-blend-mode:multiply"
       transform="matrix(0.04956018,0,0,0.04956018,90.654657,137.81557)" />
    <path
       d="M 121.59,60.83 107.66,56.34 C 98.75,53.4 93.53,46.19 91.08,37.13 L 84.95,7.27 C 84.79,6.68 84.4,5.89 83.2,5.89 c -1.01,0 -1.59,0.79 -1.75,1.38 L 75.32,37.14 C 72.86,46.2 67.65,53.41 58.74,56.35 l -13.93,4.49 c -1.97,0.64 -2,3.42 -0.04,4.09 l 14.03,4.83 c 8.88,2.95 14.06,10.15 16.52,19.17 l 6.14,29.53 c 0.16,0.59 0.49,1.65 1.75,1.65 1.33,0 1.59,-1.06 1.75,-1.65 L 91.1,88.93 C 93.56,79.9 98.74,72.7 107.62,69.76 l 14.03,-4.83 c 1.94,-0.68 1.91,-3.46 -0.06,-4.1 z"
       fill="#fdd835"
       id="path24090"
       style="mix-blend-mode:multiply"
       transform="matrix(0.04956018,0,0,0.04956018,92.631372,146.34042)" />
    <path
       d="M 121.59,60.83 107.66,56.34 C 98.75,53.4 93.53,46.19 91.08,37.13 L 84.95,7.27 C 84.79,6.68 84.4,5.89 83.2,5.89 c -1.01,0 -1.59,0.79 -1.75,1.38 L 75.32,37.14 C 72.86,46.2 67.65,53.41 58.74,56.35 l -13.93,4.49 c -1.97,0.64 -2,3.42 -0.04,4.09 l 14.03,4.83 c 8.88,2.95 14.06,10.15 16.52,19.17 l 6.14,29.53 c 0.16,0.59 0.49,1.65 1.75,1.65 1.33,0 1.59,-1.06 1.75,-1.65 L 91.1,88.93 C 93.56,79.9 98.74,72.7 107.62,69.76 l 14.03,-4.83 c 1.94,-0.68 1.91,-3.46 -0.06,-4.1 z"
       fill="#fdd835"
       id="path17887"
       style="mix-blend-mode:multiply"
       transform="matrix(0.09912035,0,0,0.09912035,92.367024,137.55737)" />
    <path
       d="m 122.91,62.08 c -0.22,-0.55 -0.65,-1.03 -1.32,-1.25 L 107.66,56.34 C 98.75,53.4 93.53,46.19 91.08,37.13 L 84.95,7.27 C 84.86,6.93 84.54,6.31 84.17,6.13 l 1.98,29.97 c 1.47,13.68 2.73,20.12 13.65,22 9.38,1.62 20.23,3.48 23.11,3.98 z"
       fill="#ffee58"
       id="path17889"
       style="mix-blend-mode:multiply"
       transform="matrix(0.09912035,0,0,0.09912035,92.367024,137.55737)" />
    <path
       d="m 122.94,63.64 -24.16,5.54 c -8.51,2.16 -13.2,7.09 -13.2,19.99 l -2.37,30.94 c 0.81,-0.08 1.47,-0.52 1.75,-1.65 L 91.1,88.93 C 93.56,79.9 98.74,72.7 107.62,69.76 l 14.03,-4.83 c 0.66,-0.24 1.08,-0.73 1.29,-1.29 z"
       fill="#f4b400"
       id="path17891"
       style="mix-blend-mode:multiply"
       transform="matrix(0.09912035,0,0,0.09912035,92.367024,137.55737)" />
    <path
       d="m 122.91,62.08 c -0.22,-0.55 -0.65,-1.03 -1.32,-1.25 L 107.66,56.34 C 98.75,53.4 93.53,46.19 91.08,37.13 L 84.95,7.27 C 84.86,6.93 84.54,6.31 84.17,6.13 l 1.98,29.97 c 1.47,13.68 2.73,20.12 13.65,22 9.38,1.62 20.23,3.48 23.11,3.98 z"
       fill="#ffee58"
       id="path24092"
       style="mix-blend-mode:multiply"
       transform="matrix(0.04956018,0,0,0.04956018,92.631372,146.34042)" />
    <path
       d="m 122.94,63.64 -24.16,5.54 c -8.51,2.16 -13.2,7.09 -13.2,19.99 l -2.37,30.94 c 0.81,-0.08 1.47,-0.52 1.75,-1.65 L 91.1,88.93 C 93.56,79.9 98.74,72.7 107.62,69.76 l 14.03,-4.83 c 0.66,-0.24 1.08,-0.73 1.29,-1.29 z"
       fill="#f4b400"
       id="path24094"
       style="mix-blend-mode:multiply"
       transform="matrix(0.04956018,0,0,0.04956018,92.631372,146.34042)" />
    <path
       d="m 122.91,62.08 c -0.22,-0.55 -0.65,-1.03 -1.32,-1.25 L 107.66,56.34 C 98.75,53.4 93.53,46.19 91.08,37.13 L 84.95,7.27 C 84.86,6.93 84.54,6.31 84.17,6.13 l 1.98,29.97 c 1.47,13.68 2.73,20.12 13.65,22 9.38,1.62 20.23,3.48 23.11,3.98 z"
       fill="#ffee58"
       id="path24100"
       style="mix-blend-mode:multiply"
       transform="matrix(0.04956018,0,0,0.04956018,90.654657,137.81557)" />
    <path
       d="m 122.94,63.64 -24.16,5.54 c -8.51,2.16 -13.2,7.09 -13.2,19.99 l -2.37,30.94 c 0.81,-0.08 1.47,-0.52 1.75,-1.65 L 91.1,88.93 C 93.56,79.9 98.74,72.7 107.62,69.76 l 14.03,-4.83 c 0.66,-0.24 1.08,-0.73 1.29,-1.29 z"
       fill="#f4b400"
       id="path24102"
       style="mix-blend-mode:multiply"
       transform="matrix(0.04956018,0,0,0.04956018,90.654657,137.81557)" />
  </g>
</svg>
